# xmcd
#
# Track frame offsets: 
#        150
#        13465
#        25837
#        41580
#        58995
#        68375
#        80430
#        93187
#        106777
#        120040
#        141025
#        165302
#        185885
#        207940
#
# Disc length: 3013 seconds
#
# Revision: 0
# Processed by: cddbd v1.5.2PL0 Copyright (c) Steve Scherf et al.
# Submitted via: ExactAudioCopy v1.0b1
#
DISCID=b00bc30e
DTITLE=The Joneses - Baby (There Is Nothing You Can Do)
DYEAR=1991
DGENRE=Funk
TTITLE0=Baby (There Is Nothing You Can Do)
TTITLE1=I Can't See What You See In Me
TTITLE2=She Loves You
TTITLE3=Pretty Pretty
TTITLE4=Win Your Love
TTITLE5=Lovin' You
TTITLE6=Hold Up
TTITLE7=Pull My String
TTITLE8=Pull My String (Version 2)
TTITLE9=Movin' On
TTITLE10=Lyin' In My Face
TTITLE11=Standing On The Outside
TTITLE12=Friendship
TTITLE13=Instant Groove
EXTD=
EXTT0=
EXTT1=
EXTT2=
EXTT3=
EXTT4=
EXTT5=
EXTT6=
EXTT7=
EXTT8=
EXTT9=
EXTT10=
EXTT11=
EXTT12=
EXTT13=
PLAYORDER=
